<svg width="29" height="29" viewBox="0 0 29 29" fill="none" xmlns="http://www.w3.org/2000/svg">
<g id="Icon">
<path id="Vector" d="M14.5 27.1345C16.1418 27.1366 17.7679 26.8142 19.2847 26.1859C20.8016 25.5576 22.1793 24.6357 23.3387 23.4732C24.5012 22.3138 25.4231 20.9361 26.0514 19.4192C26.6798 17.9024 27.0021 16.2763 27 14.6345C27.0021 12.9926 26.6797 11.3666 26.0514 9.84975C25.4231 8.3329 24.5012 6.95517 23.3387 5.79573C22.1793 4.63325 20.8016 3.71136 19.2847 3.08304C17.7679 2.45472 16.1418 2.13236 14.5 2.13449C12.8582 2.13239 11.2321 2.45477 9.71527 3.08309C8.19843 3.7114 6.8207 4.63328 5.66126 5.79573C4.4988 6.95517 3.57693 8.3329 2.94861 9.84975C2.32029 11.3666 1.99792 12.9926 2.00001 14.6345C1.99788 16.2763 2.32024 17.9024 2.94856 19.4192C3.57688 20.9361 4.49878 22.3138 5.66126 23.4732C6.8207 24.6357 8.19843 25.5575 9.71527 26.1859C11.2321 26.8142 12.8582 27.1366 14.5 27.1345Z" stroke="black" stroke-width="2.5" stroke-linejoin="round"/>
<path id="Vector_2" fill-rule="evenodd" clip-rule="evenodd" d="M14.5 22.7595C14.9144 22.7595 15.3118 22.5949 15.6049 22.3018C15.8979 22.0088 16.0625 21.6114 16.0625 21.197C16.0625 20.7826 15.8979 20.3851 15.6049 20.0921C15.3118 19.7991 14.9144 19.6345 14.5 19.6345C14.0856 19.6345 13.6882 19.7991 13.3951 20.0921C13.1021 20.3851 12.9375 20.7826 12.9375 21.197C12.9375 21.6114 13.1021 22.0088 13.3951 22.3018C13.6882 22.5949 14.0856 22.7595 14.5 22.7595Z" fill="black"/>
<path id="Vector_3" d="M14.5 7.13448V17.1345" stroke="black" stroke-width="2.5" stroke-linecap="round" stroke-linejoin="round"/>
</g>
</svg>
