<svg width="35" height="25" viewBox="0 0 35 25" fill="none" xmlns="http://www.w3.org/2000/svg">
<path id="Icon" d="M27.603 6.85948L26.3566 6.76456L26.3566 6.76479L27.603 6.85948ZM18.4692 6.85948L19.7157 6.76642L19.7157 6.76628L18.4692 6.85948ZM13.1038 22.0458L14.3127 22.3637L14.3128 22.3632L13.1038 22.0458ZM32.9691 22.0458L31.7589 22.3585L31.7591 22.3594L32.9691 22.0458ZM13.6255 8.03679L12.3791 7.94209L12.3791 7.94211L13.6255 8.03679ZM6.2908 8.03679L5.04426 8.12975L5.04427 8.12983L6.2908 8.03679ZM13.5425 17.0622C14.1757 17.3373 14.912 17.0471 15.1871 16.4139C15.4623 15.7807 15.172 15.0444 14.5389 14.7693L13.5425 17.0622ZM2.0249 20.1649L0.815949 19.8472L0.815479 19.849L2.0249 20.1649ZM10.4425 22.2845C11.1329 22.2845 11.6925 21.7248 11.6925 21.0345C11.6925 20.3441 11.1329 19.7845 10.4425 19.7845V22.2845ZM26.3566 6.76479C26.195 8.89194 24.5543 10.3345 23.0361 10.3345V12.8345C26.071 12.8345 28.6055 10.1649 28.8494 6.95416L26.3566 6.76479ZM23.0361 10.3345C21.5166 10.3345 19.8744 8.89132 19.7157 6.76642L17.2227 6.95253C17.4626 10.1669 20.0026 12.8345 23.0361 12.8345V10.3345ZM19.7157 6.76628C19.6375 5.71939 19.9778 4.89847 20.5353 4.33468C21.101 3.76264 21.9626 3.38448 23.0361 3.38448V0.884476C21.3674 0.884476 19.8418 1.48052 18.7577 2.57683C17.6654 3.68139 17.0934 5.22296 17.2227 6.95267L19.7157 6.76628ZM23.0361 3.38448C25.1217 3.38448 26.5037 4.83323 26.3566 6.76456L28.8494 6.95439C29.1175 3.43359 26.4349 0.884476 23.0361 0.884476V3.38448ZM23.0361 14.5345C18.2439 14.5345 13.187 16.8074 11.8948 21.7283L14.3128 22.3632C15.1933 19.0101 18.8093 17.0345 23.0361 17.0345V14.5345ZM11.8949 21.7279C11.5658 22.9791 12.413 24.3845 13.9148 24.3845V21.8845C14.0248 21.8845 14.1619 21.9462 14.2476 22.0653C14.3247 22.1725 14.333 22.2863 14.3127 22.3637L11.8949 21.7279ZM13.9148 24.3845H32.1581V21.8845H13.9148V24.3845ZM32.1581 24.3845C33.6648 24.3845 34.5014 22.9754 34.1791 21.7321L31.7591 22.3594C31.7397 22.2846 31.7473 22.1729 31.8239 22.0662C31.9097 21.9468 32.0474 21.8845 32.1581 21.8845V24.3845ZM34.1793 21.733C32.8873 16.7337 27.8172 14.5345 23.0361 14.5345V17.0345C27.2753 17.0345 30.8782 18.9512 31.7589 22.3585L34.1793 21.733ZM12.3791 7.94211C12.2578 9.53891 11.0118 10.597 9.95816 10.597V13.097C12.5414 13.097 14.6694 10.7977 14.8719 8.13147L12.3791 7.94211ZM9.95816 10.597C8.90313 10.597 7.65635 9.53827 7.53733 7.94374L5.04427 8.12983C5.24355 10.7996 7.37627 13.097 9.95816 13.097V10.597ZM7.53734 7.94382C7.43141 6.52346 8.42003 5.48448 9.95816 5.48448V2.98448C7.11483 2.98448 4.81944 5.11518 5.04426 8.12975L7.53734 7.94382ZM9.95816 5.48448C11.4879 5.48448 12.4844 6.55578 12.3791 7.94209L14.8719 8.13148C15.0974 5.16424 12.8098 2.98448 9.95816 2.98448V5.48448ZM14.5389 14.7693C13.0881 14.1389 11.5311 13.9143 9.95816 13.9143V16.4143C11.3011 16.4143 12.4953 16.6071 13.5425 17.0622L14.5389 14.7693ZM9.95816 13.9143C6.07752 13.9143 1.89034 15.7592 0.815951 19.8472L3.23384 20.4827C3.89625 17.9622 6.64247 16.4143 9.95816 16.4143V13.9143ZM0.815479 19.849C0.517801 20.9886 1.29106 22.2845 2.67326 22.2845V19.7845C2.84356 19.7845 3.02834 19.8737 3.14313 20.0331C3.24931 20.1806 3.2689 20.3485 3.23431 20.4809L0.815479 19.849ZM2.67326 22.2845H10.4425V19.7845H2.67326V22.2845Z" fill="black"/>
</svg>
