<svg width="130" height="118" viewBox="0 0 130 118" fill="none" xmlns="http://www.w3.org/2000/svg">
<g id="Ikona/ProfilUzytkownika">
<path id="Vector" d="M2.49707 100.167C2.49707 92.0341 5.78947 84.2341 11.65 78.4832C17.5105 72.7323 25.4591 69.5015 33.7471 69.5015H96.2471C104.535 69.5015 112.484 72.7323 118.344 78.4832C124.205 84.2341 127.497 92.0341 127.497 100.167C127.497 104.234 125.851 108.134 122.921 111.009C119.99 113.885 116.016 115.5 111.872 115.5H18.1221C13.9781 115.5 10.0038 113.885 7.07353 111.009C4.14327 108.134 2.49707 104.234 2.49707 100.167Z" stroke="#1F3565" stroke-width="5" stroke-linejoin="round"/>
<path id="Vector_2" d="M65.0182 56.6664C80.2609 56.6664 92.6175 44.5409 92.6175 29.5832C92.6175 14.6256 80.2609 2.5 65.0182 2.5C49.7756 2.5 37.4189 14.6256 37.4189 29.5832C37.4189 44.5409 49.7756 56.6664 65.0182 56.6664Z" stroke="#1F3565" stroke-width="5"/>
</g>
</svg>
