<svg width="29" height="29" viewBox="0 0 29 29" fill="none" xmlns="http://www.w3.org/2000/svg">
<g id="Icon">
<path id="Vector" d="M14.5 18.3845C16.5711 18.3845 18.25 16.7056 18.25 14.6345C18.25 12.5634 16.5711 10.8845 14.5 10.8845C12.4289 10.8845 10.75 12.5634 10.75 14.6345C10.75 16.7056 12.4289 18.3845 14.5 18.3845Z" stroke="black" stroke-width="2.3" stroke-linecap="round" stroke-linejoin="round"/>
<path id="Vector_2" d="M24.028 12.6287L22.6559 9.31548L24.5 7.13448L22 4.63448L19.8309 6.48816L16.4473 5.09665L15.6691 2.13448H13.2262L12.4364 5.13589L9.13051 6.52943L7 4.63448L4.5 7.13448L6.31671 9.37054L4.96562 12.6924L2 13.3845V15.8845L5.00139 16.7039L6.39469 20.0091L4.5 22.1345L7 24.6345L9.23895 22.8099L12.4963 24.1499L13.25 27.1345H15.75L16.5056 24.151L19.8189 22.7788C20.3711 23.1736 22 24.6345 22 24.6345L24.5 22.1345L22.6449 19.9462L24.0174 16.632L26.9999 15.856L27 13.3845L24.028 12.6287Z" stroke="black" stroke-width="2.3" stroke-linecap="round" stroke-linejoin="round"/>
</g>
</svg>
