<svg width="29" height="29" viewBox="0 0 29 29" fill="none" xmlns="http://www.w3.org/2000/svg">
<g id="Icon">
<path id="Vector" d="M25.5294 14.0095V8.38448L18.9118 2.13448H3.47059C3.08056 2.13448 2.70651 2.26617 2.43073 2.50059C2.15494 2.73501 2 3.05296 2 3.38448V25.8845C2 26.216 2.15494 26.5339 2.43073 26.7684C2.70651 27.0028 3.08056 27.1345 3.47059 27.1345H10.8235" stroke="black" stroke-width="2.5" stroke-linecap="round" stroke-linejoin="round"/>
<path id="Vector_2" d="M21.1176 22.1345C22.742 22.1345 24.0588 21.0152 24.0588 19.6345C24.0588 18.2538 22.742 17.1345 21.1176 17.1345C19.4933 17.1345 18.1765 18.2538 18.1765 19.6345C18.1765 21.0152 19.4933 22.1345 21.1176 22.1345Z" stroke="black" stroke-width="2.5" stroke-linecap="round" stroke-linejoin="round"/>
<path id="Vector_3" d="M27 27.1345C27 25.8084 26.3802 24.5366 25.2771 23.5989C24.1739 22.6613 22.6777 22.1345 21.1176 22.1345C19.5575 22.1345 18.0613 22.6613 16.9582 23.5989C15.855 24.5366 15.2353 25.8084 15.2353 27.1345M18.1765 2.13448V8.38448H25.5294" stroke="black" stroke-width="2.5" stroke-linecap="round" stroke-linejoin="round"/>
</g>
</svg>
